<?xml version="1.0" encoding="utf-8"?>
<!-- Generator: Adobe Illustrator 25.2.3, SVG Export Plug-In . SVG Version: 6.00 Build 0)  -->
<svg version="1.1" xmlns="http://www.w3.org/2000/svg" xmlns:xlink="http://www.w3.org/1999/xlink" x="0px" y="0px"
	 viewBox="0 0 150 50" style="enable-background:new 0 0 150 50;" xml:space="preserve">
<style type="text/css">
	.st0{fill:#2A2D44;}
	.st1{fill:#EA5043;}
</style>
<g id="Warstwa_1">
</g>
<g id="Warstwa_2">
	<g>
		<path class="st0" d="M10.6,19.1V1.6h17.5C36,1.6,42.4,8,42.4,15.9v17.5H24.9C17,33.4,10.6,27,10.6,19.1"/>
		<path class="st0" d="M86,20.6c0-0.8-0.3-1.4-0.7-1.8c-0.4-0.4-1-0.6-1.8-0.6c-1.5,0-2.3,0.8-2.6,2.4H86z M81,23.8
			c0,0.8,0.3,1.5,0.8,2c0.5,0.5,1.2,0.8,2,0.8c0.8,0,1.6-0.3,2.3-1c0.5-0.4,0.9-0.7,1.1-0.9c0.3-0.1,0.6-0.2,0.9-0.2
			c0.7,0,1.3,0.2,1.8,0.6c0.5,0.4,0.8,0.9,0.8,1.5c0,0.9-0.5,1.7-1.6,2.5c-1.4,1.1-3.2,1.6-5.3,1.6c-2.7,0-4.8-0.8-6.3-2.3
			c-1.5-1.5-2.3-3.6-2.3-6.3c0-2.7,0.7-4.7,2.2-6.2c1.5-1.5,3.5-2.2,6.2-2.2c2.8,0,4.9,0.9,6.4,2.8c1.1,1.4,1.6,2.9,1.6,4.6
			c0,1-0.3,1.7-0.7,2.1c-0.3,0.3-1,0.4-2,0.4H81z M64.9,18c-0.9,0-1.5,0.4-2,1.1c-0.5,0.8-0.7,1.9-0.7,3.3c0,2.9,0.9,4.4,2.6,4.4
			c0.8,0,1.5-0.4,2.1-1.2c0.5-0.8,0.8-1.9,0.8-3.2c0-1.4-0.2-2.5-0.7-3.2C66.4,18.4,65.7,18,64.9,18z M62.3,16
			c1.2-1.4,2.7-2.2,4.4-2.2c1.9,0,3.5,0.7,4.8,2.1c1.4,1.5,2,3.6,2,6.2c0,2.7-0.7,4.8-2,6.3c-1.3,1.5-3,2.3-5,2.3
			c-1.7,0-3.1-0.5-4.3-1.6v2.1v1.3c0,1.3-0.3,2.3-0.9,2.8c-0.6,0.5-1.2,0.7-2,0.7c-0.7,0-1.4-0.3-2-0.7c-0.6-0.5-1-1.5-1-2.8v-1.3
			V18.4c0-1,0-1.7,0.1-2.1c0-0.3,0.2-0.7,0.4-1c0.5-1,1.3-1.4,2.6-1.4c0.7,0,1.2,0.2,1.7,0.5C61.6,14.7,62,15.2,62.3,16z"/>
		<path class="st1" d="M108.3,13v12.8v1.3c0,1.3-0.3,2.3-1,2.8c-0.6,0.5-1.2,0.7-2,0.7c-0.7,0-1.4-0.2-2-0.7c-0.6-0.5-1-1.5-1-2.8
			v-1.3V13v-1.3c0-1.3,0.3-2.3,1-2.8c0.6-0.5,1.2-0.7,2-0.7c0.7,0,1.4,0.3,2,0.7c0.6,0.5,1,1.5,1,2.8V13z M99.5,13v12.8v1.3
			c0,1.3-0.3,2.3-1,2.8c-0.6,0.5-1.2,0.7-2,0.7c-0.7,0-1.4-0.2-2-0.7c-0.6-0.5-1-1.5-1-2.8v-1.3V13v-1.3c0-1.3,0.3-2.3,1-2.8
			c0.6-0.5,1.2-0.7,2-0.7c0.7,0,1.4,0.3,2,0.7c0.6,0.5,1,1.5,1,2.8V13z"/>
		<path class="st0" d="M136.3,18.3v5.6c0,0.8,0,1.3,0.1,1.5c0.1,0.2,0.3,0.3,0.6,0.4l0.9,0.1c0.5,0.1,0.9,0.3,1.2,0.7
			c0.3,0.4,0.5,0.9,0.5,1.5c0,0.8-0.3,1.5-0.9,1.9c-0.6,0.4-1.5,0.7-2.5,0.7c-1.8,0-3.2-0.4-4.1-1.1c-0.6-0.4-1-1-1.2-1.7
			c-0.2-0.7-0.3-1.7-0.3-3.1v-6.5h-0.6c-1.6,0-2.3-0.7-2.3-2c0-0.7,0.2-1.2,0.5-1.5c0.4-0.3,1-0.4,1.8-0.4h0.6v-0.8
			c0-0.8,0.1-1.5,0.2-1.9c0.1-0.5,0.4-0.9,0.7-1.2c0.5-0.6,1.2-0.9,2-0.9c1.1,0,1.9,0.4,2.5,1.2c0.2,0.3,0.3,0.7,0.4,1
			c0.1,0.3,0.1,0.9,0.1,1.8v0.8h0.8c0.9,0,1.5,0.2,1.9,0.5c0.4,0.3,0.6,0.8,0.6,1.6c0,0.7-0.2,1.2-0.6,1.5c-0.4,0.3-1,0.5-1.8,0.5
			H136.3z M121.3,20.6c0-0.8-0.3-1.4-0.7-1.8c-0.4-0.4-1-0.6-1.8-0.6c-1.5,0-2.3,0.8-2.6,2.4H121.3z M116.4,23.8
			c0,0.8,0.3,1.5,0.8,2c0.5,0.5,1.2,0.8,2,0.8c0.8,0,1.6-0.3,2.3-1c0.5-0.4,0.9-0.7,1.1-0.9c0.3-0.1,0.6-0.2,0.9-0.2
			c0.7,0,1.3,0.2,1.8,0.6c0.5,0.4,0.8,0.9,0.8,1.5c0,0.9-0.5,1.7-1.6,2.5c-1.4,1.1-3.2,1.6-5.3,1.6c-2.7,0-4.8-0.8-6.3-2.3
			c-1.5-1.5-2.3-3.6-2.3-6.3c0-2.7,0.7-4.7,2.2-6.2c1.5-1.5,3.5-2.2,6.2-2.2c2.8,0,4.9,0.9,6.4,2.8c1.1,1.4,1.6,2.9,1.6,4.6
			c0,1-0.3,1.7-0.7,2.1c-0.3,0.3-1,0.4-2,0.4H116.4z"/>
		<path class="st0" d="M57.6,44.4h3.2v-4L57.6,44.4z M60.8,47.3v-2.2h-4v-0.7l4.2-5.2h0.5v5.2h1v0.7h-1v2.2H60.8z"/>
		<path class="st0" d="M141.5,46.6v0.7h-5.4v-8.1h5.3v0.7h-4.5v2.9h4v0.7h-4v3.1H141.5z M123.8,43.6h2.6c0.2,0,0.5-0.1,0.6-0.2
			c0.2-0.1,0.4-0.2,0.5-0.4c0.1-0.2,0.2-0.4,0.3-0.6c0.1-0.2,0.1-0.5,0.1-0.7c0-0.2,0-0.5-0.1-0.7c-0.1-0.2-0.2-0.4-0.4-0.6
			c-0.1-0.2-0.3-0.3-0.5-0.4c-0.2-0.1-0.4-0.1-0.6-0.1h-2.6V43.6z M123,47.3v-8.1h3.4c0.4,0,0.7,0.1,1,0.2c0.3,0.1,0.5,0.3,0.8,0.6
			c0.2,0.2,0.4,0.5,0.5,0.8c0.1,0.3,0.2,0.6,0.2,0.9c0,0.3,0,0.6-0.1,0.9c-0.1,0.3-0.2,0.5-0.4,0.7c-0.2,0.2-0.3,0.4-0.6,0.5
			c-0.2,0.1-0.5,0.2-0.7,0.3l2,3.1h-0.9l-1.9-3h-2.4v3H123z M112.1,46.6c0.5,0,0.9-0.1,1.3-0.3c0.3-0.2,0.6-0.4,0.8-0.8
			c0.2-0.3,0.3-0.7,0.4-1.1c0.1-0.4,0.1-0.8,0.1-1.2v-4.1h0.8v4.1c0,0.5-0.1,1.1-0.2,1.6c-0.1,0.5-0.3,0.9-0.6,1.3
			c-0.3,0.4-0.6,0.7-1.1,0.9c-0.4,0.2-1,0.3-1.6,0.3c-0.6,0-1.2-0.1-1.6-0.3c-0.4-0.2-0.8-0.5-1.1-0.9c-0.3-0.4-0.5-0.8-0.6-1.3
			c-0.1-0.5-0.2-1-0.2-1.5v-4.1h0.8v4.1c0,0.4,0,0.8,0.1,1.2c0.1,0.4,0.2,0.8,0.4,1.1c0.2,0.3,0.5,0.6,0.8,0.8
			C111.1,46.6,111.6,46.6,112.1,46.6z M102,39.9h-2.9v7.4h-0.8v-7.4h-2.9v-0.7h6.6V39.9z M85.3,46.6c0.5,0,0.9-0.1,1.3-0.3
			c0.3-0.2,0.6-0.4,0.8-0.8c0.2-0.3,0.3-0.7,0.4-1.1c0.1-0.4,0.1-0.8,0.1-1.2v-4.1h0.8v4.1c0,0.5-0.1,1.1-0.2,1.6
			c-0.1,0.5-0.3,0.9-0.6,1.3c-0.3,0.4-0.6,0.7-1.1,0.9c-0.4,0.2-1,0.3-1.6,0.3c-0.6,0-1.2-0.1-1.6-0.3c-0.4-0.2-0.8-0.5-1.1-0.9
			c-0.3-0.4-0.5-0.8-0.6-1.3c-0.1-0.5-0.2-1-0.2-1.5v-4.1h0.8v4.1c0,0.4,0,0.8,0.1,1.2c0.1,0.4,0.2,0.8,0.4,1.1
			c0.2,0.3,0.5,0.6,0.8,0.8C84.3,46.6,84.8,46.6,85.3,46.6z M69.6,47.3v-8.1H75v0.7h-4.5v3h3.8v0.7h-3.8v3.8H69.6z"/>
		<path class="st1" d="M42.3,36.6v6.9c0,2.7-1.8,4.9-4.1,4.9h-0.9c-6.6,0-16.9,0-21.4,0c-1.4,0-2.3-0.2-2.3-0.2s-2.9-2.3-3.3-2.6
			c-0.3-0.3-1.8-1.8-1.8-1.8s-0.3,0.1,0.1-0.8c0.4-0.8,0.3-0.3,0.4-0.8c0.4-2,1.7-1.1,1.5-2.1l0.1-0.7c0,0-0.4-0.2-0.6-0.5
			c-0.1-0.2-0.1-0.1,0.5-1.2l0.2-1.1l1.9-0.5c0,0,4.1,0,9.4,0.1C28.8,36.4,37.5,36.5,42.3,36.6"/>
	</g>
</g>
</svg>
